<svg width="278" height="96" viewBox="0 0 278 96" fill="none" xmlns="http://www.w3.org/2000/svg">
<path fill-rule="evenodd" clip-rule="evenodd" d="M204.803 83.4523C201.105 78.9298 204.612 76.1753 206.315 77.8963C213.683 86.9987 224.942 92.8196 237.561 92.8196C259.758 92.8196 277.752 74.8155 277.752 52.6064C279.73 91.3132 230.487 110.295 204.803 83.4523Z" fill="white"/>
<path fill-rule="evenodd" clip-rule="evenodd" d="M240.256 0C246.096 0.0695264 245.952 4.52869 243.54 4.72851C231.835 4.53109 220.144 9.42464 212.037 19.101C197.778 36.1212 200.009 61.4849 217.02 75.7521C186.101 52.404 203.196 2.45024 240.256 0V0Z" fill="white"/>
<path fill-rule="evenodd" clip-rule="evenodd" d="M230.436 66.4546C230.015 71.0548 226.98 74.6542 220.836 77.2039C224.952 77.8007 230.037 77.8652 234.499 76.4371C238.066 75.2953 241.237 73.1954 243.185 69.6416C243.357 69.3279 243.51 69.0409 243.65 68.7731L244.021 68.047C243.527 66.3552 242.777 64.559 241.789 62.661C240.771 60.7051 239.499 58.6408 237.993 56.4715C235.867 53.4078 234.742 49.2523 234.697 44.8273C234.655 40.5735 235.612 36.0639 237.639 32.0326C236.28 29.4207 235.358 26.6776 235.396 23.5451C235.433 20.5339 236.359 17.1779 238.639 13.2559C235.535 13.9015 232.848 15.0966 230.566 16.6826C226.467 19.5305 223.663 23.6429 222.067 28.1022C220.468 32.5689 220.081 37.3805 220.816 41.6174C221.291 44.3565 222.236 46.8532 223.625 48.8548C228.412 55.7532 230.877 61.6358 230.436 66.4546V66.4546Z" fill="white"/>
<path fill-rule="evenodd" clip-rule="evenodd" d="M249.863 79.4667C253.006 78.4717 255.98 77.0973 258.73 75.398C264.706 59.8432 259.702 51.8975 255.22 44.7822C250.873 37.8827 247.007 31.7422 253.613 20.4507C250.509 21.0963 247.823 22.2919 245.541 23.8774C241.442 26.7251 238.638 30.838 237.041 35.2971C235.443 39.7643 235.055 44.5756 235.79 48.8126C236.265 51.5517 237.21 54.0483 238.599 56.0499C242.585 61.7929 244.962 66.831 245.391 71.1351C245.789 75.1267 244.528 78.4784 241.346 81.1648C244.287 80.9074 247.138 80.3296 249.863 79.4667V79.4667Z" fill="white"/>
<path d="M10.9336 40.6581V44.3794H16.2475C15.575 46.0309 13.6491 47.1219 11.3971 47.1219C8.15692 47.1219 6.03231 44.8025 6.03231 41.4125C6.03231 37.992 8.19251 35.6725 11.3971 35.6725C13.5778 35.6725 15.4934 36.8348 16.2679 38.6394H22.448C21.5411 33.664 16.9507 30.1518 11.3463 30.1518C4.75356 30.1518 0 34.9028 0 41.4125C0 47.9274 4.84014 52.6427 11.3971 52.6427C18.0969 52.6427 22.667 47.6674 22.667 40.6581H10.9336ZM41.0522 43.6861C41.0522 38.8433 37.3687 35.0455 32.0445 35.0455C26.8631 35.0455 23.0776 38.7669 23.0776 43.8339C23.0776 48.8807 26.8936 52.6427 32.0445 52.6427C36.1867 52.6427 39.5238 50.2876 40.6854 46.5205H35.0301C34.4849 47.4889 33.3742 48.0701 32.0445 48.0701C30.2511 48.0701 29.0488 47.0914 28.6769 45.1949H40.9351C41.0065 44.6852 41.0522 44.1857 41.0522 43.6861ZM32.0445 39.5008C33.7615 39.5008 34.9486 40.3929 35.4479 42.0446H28.7736C29.2373 40.4031 30.3887 39.5008 32.0445 39.5008ZM51.5659 35.4942C49.5994 35.4942 48.1831 36.06 47.0214 37.4057L46.1349 35.5859H42.3239V52.1023H48.0098V43.6861C48.0098 41.5756 48.8504 40.6938 50.8629 40.6938H53.069V35.4942H51.5659ZM66.9401 35.5706L66.3594 36.845C64.999 35.7235 63.2616 35.0709 61.3154 35.0709C56.2664 35.0709 52.6592 38.7107 52.6592 43.8289C52.6592 48.9622 56.2664 52.6427 61.3154 52.6427C63.2311 52.6427 64.9429 52.0106 66.2982 50.9146L66.7822 52.082H71.1739V35.5706H66.9401ZM62.0746 47.6062C59.9449 47.6062 58.3757 46.0004 58.3757 43.839C58.3757 41.6929 59.9296 40.0821 62.0746 40.0821C64.2043 40.0821 65.7734 41.6929 65.7734 43.839C65.7734 45.9953 64.2043 47.6062 62.0746 47.6062ZM83.3944 35.0965C81.2699 35.0965 79.446 35.9173 78.2181 37.2833L77.4386 35.5859H73.4492V52.1023H79.1351V43.2834C79.1351 41.1678 80.149 39.929 81.9169 39.929C83.3384 39.929 84.0567 40.8823 84.0567 42.8042V52.1023H89.7426V42.0192C89.7426 37.8136 87.2258 35.0965 83.3944 35.0965ZM103.639 29.6216V36.1925C102.457 35.4584 101.061 35.0455 99.5378 35.0455C94.4685 35.0455 90.8664 38.7107 90.8664 43.8441C90.8664 48.9775 94.4685 52.658 99.5378 52.658C101.459 52.658 103.176 52.0056 104.516 50.8738L105.051 52.1023H109.259V29.6216H103.639ZM100.297 47.6265C98.1673 47.6265 96.5982 46.0004 96.5982 43.8441C96.5982 41.6878 98.1673 40.0616 100.297 40.0616C102.427 40.0616 103.996 41.6878 103.996 43.8441C103.996 46.0004 102.427 47.6265 100.297 47.6265ZM119.793 52.6427C125.158 52.6427 129.045 48.947 129.045 43.8441C129.045 38.7209 125.158 35.0455 119.793 35.0455C114.408 35.0455 110.541 38.7209 110.541 43.8441C110.541 48.947 114.408 52.6427 119.793 52.6427ZM119.793 47.5348C117.719 47.5348 116.232 46.0309 116.232 43.8441C116.232 41.6571 117.719 40.1534 119.793 40.1534C121.866 40.1534 123.354 41.6725 123.354 43.8441C123.354 46.0309 121.866 47.5348 119.793 47.5348ZM153.958 43.6861C153.958 38.8433 150.274 35.0455 144.95 35.0455C139.769 35.0455 135.983 38.7669 135.983 43.8339C135.983 48.8807 139.799 52.6427 144.95 52.6427C149.092 52.6427 152.43 50.2876 153.591 46.5205H147.936C147.391 47.4889 146.28 48.0701 144.95 48.0701C143.157 48.0701 141.955 47.0914 141.583 45.1949H153.841C153.912 44.6852 153.958 44.1857 153.958 43.6861ZM144.95 39.5008C146.667 39.5008 147.854 40.3929 148.354 42.0446H141.679C142.143 40.4031 143.294 39.5008 144.95 39.5008ZM174.656 35.1016C172.593 35.1016 170.759 36.0395 169.572 37.5332C168.548 36.0039 166.856 35.1016 164.849 35.1016C162.953 35.1016 161.226 35.9732 160.034 37.365L159.229 35.5859H155.23V52.1023H160.916V43.0437C160.916 40.9945 161.756 39.8934 163.29 39.8934C164.477 39.8934 165.103 40.7753 165.103 42.4474V52.1023H170.637V43.0488C170.637 40.9689 171.436 39.8934 173.006 39.8934C174.218 39.8934 174.855 40.7243 174.855 42.4474V52.1023H180.541V41.749C180.541 37.8595 178.192 35.1016 174.656 35.1016Z" fill="white"/>
<path d="M4.86562 19.9156V11.182H3.39423V19.9156H4.86562ZM18.4546 15.6236V18.0566C17.831 18.4308 17.0953 18.6555 16.4469 18.6555C14.6637 18.6555 13.2547 17.2955 13.2547 15.5487C13.2547 13.8145 14.6513 12.4547 16.4345 12.4547C17.3448 12.4547 18.28 12.8288 18.9533 13.4527L19.7889 12.3673C18.9284 11.6186 17.6815 11.1445 16.4345 11.1445C13.7909 11.1445 11.7583 13.0534 11.7583 15.5487C11.7583 18.044 13.766 19.9779 16.3472 19.9779C17.5442 19.9779 18.8536 19.5164 19.7389 18.8426V15.6236H18.4546ZM32.6793 19.9156H34.3502L32.3926 16.996C33.5522 16.547 34.2007 15.5613 34.2007 14.1638C34.2007 12.2674 32.9163 11.182 30.6842 11.182H27.1428V19.9156H28.6142V17.2831H30.6842C30.8213 17.2831 30.9585 17.2831 31.0832 17.2706L32.6793 19.9156ZM28.6142 15.9605V12.5045H30.6842C32.0309 12.5045 32.804 13.0534 32.804 14.2013C32.804 15.3866 32.0309 15.9605 30.6842 15.9605H28.6142ZM47.7148 12.5045V11.182H41.4799V19.9156H47.8644V18.593H42.9513V16.1851H47.2159V14.8626H42.9513V12.5045H47.7148ZM59.0964 11.182H54.5949V12.5045H57.6126V17.1707C57.6126 18.0691 57.1512 18.5556 56.3656 18.5556C55.7671 18.5556 55.0812 18.2188 54.5077 17.5949L53.8092 18.7178C54.4578 19.5164 55.3306 19.9779 56.378 19.9779C58.0614 19.9779 59.0964 18.9798 59.0964 17.2206V11.182ZM71.9122 17.9443L72.7477 19.9156H74.3189L70.5031 11.182H68.9943L65.1411 19.9156H66.6749L67.5104 17.9443H71.9122ZM71.3511 16.6343H68.059L69.705 12.7541L71.3511 16.6343Z" fill="white"/>
<path d="M117.878 60.3257H109.227V81.7258H117.878C124.318 81.7258 128.903 77.25 128.903 71.0104C128.903 64.7607 124.338 60.3257 117.878 60.3257ZM117.598 76.3223H115.147V65.7292H117.598C120.756 65.7292 122.861 67.8347 122.861 71.0104C122.861 74.1609 120.756 76.3223 117.598 76.3223V76.3223ZM147.39 73.3147C147.39 68.4719 143.707 64.6741 138.383 64.6741C133.201 64.6741 129.416 68.3954 129.416 73.4625C129.416 78.5092 133.232 82.2713 138.383 82.2713C142.525 82.2713 145.862 79.9162 147.024 76.149H141.368C140.823 77.1174 139.712 77.6987 138.383 77.6987C136.589 77.6987 135.387 76.7199 135.015 74.8235H147.273C147.345 74.3138 147.39 73.8142 147.39 73.3147ZM138.383 69.1294C140.1 69.1294 141.287 70.0215 141.786 71.6732H135.112C135.575 70.0317 136.727 69.1294 138.383 69.1294ZM156.59 82.2508C161.465 82.2508 164.711 79.2432 164.711 74.6299V65.2144H159.025V74.38C159.025 76.1031 158.108 77.143 156.59 77.143C155.071 77.143 154.134 76.1234 154.134 74.38V65.2144H148.448V74.6299C148.448 79.2432 151.714 82.2508 156.59 82.2508V82.2508ZM173.1 82.2713C177.487 82.2713 180.396 80.013 180.396 76.5618C180.396 72.3716 176.931 71.8312 174.323 71.3674C172.754 71.087 171.495 70.8677 171.495 69.9298C171.495 69.1601 172.106 68.7114 173.018 68.7114C174.048 68.7114 174.756 69.2008 174.756 70.2561H180.08C180.014 66.9119 177.293 64.6741 173.09 64.6741C168.856 64.6741 166.039 66.81 166.039 70.1185C166.039 74.1251 169.432 74.9001 171.989 75.3181C173.579 75.578 174.827 75.8482 174.827 76.8015C174.827 77.6578 174.037 78.0809 173.207 78.0809C172.127 78.0809 171.286 77.5253 171.286 76.3172H165.814C165.865 79.8958 168.601 82.2713 173.1 82.2713V82.2713Z" fill="white"/>
<path fill-rule="evenodd" clip-rule="evenodd" d="M239.021 81.3024C239.352 81.2928 239.69 81.2782 240.033 81.2597C242.242 79.6466 243.636 77.7595 244.286 75.6065C244.872 73.6676 244.859 71.5022 244.302 69.1157C244.167 69.3761 244.011 69.6678 243.831 69.9953C241.842 73.6254 238.656 75.8101 235.06 77.0285C230.902 78.4373 226.196 78.5502 222.172 78.1162C224.297 79.0267 226.517 79.7584 228.815 80.2912C231.712 80.963 234.732 81.3187 237.837 81.3187C238.264 81.3187 238.659 81.3132 239.021 81.3024V81.3024ZM265.117 41.4225C262.255 41.9559 259.78 43.9963 257.37 46.8512C259.365 50.1588 261.21 53.7824 261.914 58.3167C262.578 62.5894 262.224 67.6576 260.021 74.0078L260.183 73.8292C263.868 69.7251 264.956 63.6303 265.943 58.1038C267.227 50.9099 268.346 44.648 274.678 44.5285C270.915 41.7583 267.825 40.9179 265.117 41.4225V41.4225Z" fill="white"/>
</svg>
