<svg width="181" height="63" viewBox="0 0 181 63" fill="none" xmlns="http://www.w3.org/2000/svg">
<path fill-rule="evenodd" clip-rule="evenodd" d="M133.434 54.3712C131.025 51.4247 133.31 49.6301 134.419 50.7513C139.22 56.6818 146.555 60.4742 154.777 60.4742C169.239 60.4742 180.962 48.7441 180.962 34.2744C182.251 59.4928 150.168 71.8602 133.434 54.3712Z" fill="#2C9DB8"/>
<path fill-rule="evenodd" clip-rule="evenodd" d="M156.533 0C160.338 0.0452982 160.244 2.95056 158.673 3.08074C151.046 2.95212 143.429 6.14039 138.148 12.4448C128.857 23.5339 130.311 40.059 141.394 49.3544C121.25 34.1425 132.388 1.59639 156.533 0Z" fill="#2C9DB8"/>
<path fill-rule="evenodd" clip-rule="evenodd" d="M150.135 43.2969C149.861 46.294 147.883 48.6392 143.88 50.3004C146.562 50.6892 149.875 50.7313 152.782 49.8008C155.106 49.0569 157.172 47.6887 158.441 45.3734C158.553 45.169 158.653 44.982 158.744 44.8075L158.986 44.3344C158.664 43.2322 158.175 42.0619 157.532 40.8253C156.868 39.551 156.04 38.206 155.059 36.7927C153.673 34.7966 152.94 32.0892 152.911 29.2062C152.884 26.4347 153.507 23.4966 154.828 20.8702C153.942 19.1684 153.342 17.3812 153.367 15.3403C153.391 13.3785 153.994 11.1919 155.479 8.6366C153.457 9.05726 151.707 9.83589 150.22 10.8692C147.549 12.7247 145.722 15.404 144.682 18.3093C143.641 21.2196 143.388 24.3544 143.867 27.1149C144.176 28.8994 144.792 30.5261 145.697 31.8302C148.816 36.3247 150.422 40.1573 150.135 43.2969Z" fill="#2C9DB8"/>
<path fill-rule="evenodd" clip-rule="evenodd" d="M162.792 51.7746C164.84 51.1263 166.777 50.2309 168.569 49.1237C172.463 38.9893 169.202 33.8125 166.282 29.1768C163.45 24.6815 160.931 20.6809 165.235 13.3241C163.213 13.7448 161.463 14.5237 159.976 15.5567C157.305 17.4121 155.478 20.0917 154.439 22.997C153.397 25.9075 153.144 29.0421 153.623 31.8027C153.933 33.5873 154.549 35.2138 155.454 36.5179C158.05 40.2596 159.599 43.5421 159.878 46.3463C160.138 48.9469 159.316 51.1306 157.243 52.8809C159.159 52.7132 161.016 52.3368 162.792 51.7746Z" fill="#2C9DB8"/>
<path d="M7.12352 26.4899V28.9144H10.5856C10.1475 29.9905 8.89276 30.7012 7.42553 30.7012C5.31444 30.7012 3.9302 29.1901 3.9302 26.9814C3.9302 24.7529 5.33763 23.2417 7.42553 23.2417C8.84629 23.2417 10.0943 23.999 10.599 25.1747H14.6254C14.0346 21.9331 11.0438 19.6448 7.3924 19.6448C3.09707 19.6448 0 22.7402 0 26.9814C0 31.226 3.15347 34.2982 7.42553 34.2982C11.7906 34.2982 14.7681 31.0566 14.7681 26.4899H7.12352ZM26.7466 28.4628C26.7466 25.3075 24.3466 22.8332 20.8778 22.8332C17.502 22.8332 15.0356 25.2577 15.0356 28.5591C15.0356 31.8471 17.5219 34.2982 20.8778 34.2982C23.5765 34.2982 25.7507 32.7638 26.5076 30.3094H22.823C22.4678 30.9403 21.7442 31.319 20.8778 31.319C19.7094 31.319 18.926 30.6814 18.6837 29.4458H26.6703C26.7168 29.1137 26.7466 28.7882 26.7466 28.4628ZM20.8778 25.7359C21.9965 25.7359 22.7699 26.3172 23.0952 27.3933H18.7467C19.0488 26.3238 19.799 25.7359 20.8778 25.7359ZM33.5965 23.1255C32.3153 23.1255 31.3925 23.4941 30.6356 24.3709L30.058 23.1852H27.5751V33.9461H31.2796V28.4628C31.2796 27.0877 31.8273 26.5132 33.1385 26.5132H34.5758V23.1255H33.5965ZM43.6132 23.1753L43.2348 24.0056C42.3485 23.2749 41.2166 22.8497 39.9486 22.8497C36.659 22.8497 34.3088 25.2212 34.3088 28.5557C34.3088 31.9003 36.659 34.2982 39.9486 34.2982C41.1967 34.2982 42.312 33.8864 43.195 33.1723L43.5103 33.9329H46.3716V23.1753H43.6132ZM40.4432 31.0168C39.0556 31.0168 38.0333 29.9706 38.0333 28.5624C38.0333 27.1641 39.0457 26.1146 40.4432 26.1146C41.8307 26.1146 42.853 27.1641 42.853 28.5624C42.853 29.9673 41.8307 31.0168 40.4432 31.0168ZM54.3335 22.8664C52.9494 22.8664 51.7611 23.4011 50.9611 24.2912L50.4532 23.1852H47.8541V33.9461H51.5585V28.2004C51.5585 26.822 52.2191 26.0149 53.3709 26.0149C54.2971 26.0149 54.7651 26.636 54.7651 27.8882V33.9461H58.4696V27.3767C58.4696 24.6366 56.8298 22.8664 54.3335 22.8664ZM67.5236 19.2993V23.5805C66.7535 23.1022 65.844 22.8332 64.8514 22.8332C61.5486 22.8332 59.2018 25.2212 59.2018 28.5657C59.2018 31.9102 61.5486 34.3082 64.8514 34.3082C66.1029 34.3082 67.2216 33.8831 68.0946 33.1457L68.4431 33.9461H71.1849V19.2993H67.5236ZM65.346 31.03C63.9585 31.03 62.9362 29.9706 62.9362 28.5657C62.9362 27.1608 63.9585 26.1013 65.346 26.1013C66.7336 26.1013 67.7559 27.1608 67.7559 28.5657C67.7559 29.9706 66.7336 31.03 65.346 31.03ZM78.0481 34.2982C81.5435 34.2982 84.0762 31.8903 84.0762 28.5657C84.0762 25.2278 81.5435 22.8332 78.0481 22.8332C74.5395 22.8332 72.0201 25.2278 72.0201 28.5657C72.0201 31.8903 74.5395 34.2982 78.0481 34.2982ZM78.0481 30.9703C76.6972 30.9703 75.7279 29.9905 75.7279 28.5657C75.7279 27.1408 76.6972 26.1611 78.0481 26.1611C79.3991 26.1611 80.3684 27.1509 80.3684 28.5657C80.3684 29.9905 79.3991 30.9703 78.0481 30.9703ZM100.308 28.4628C100.308 25.3075 97.9076 22.8332 94.4388 22.8332C91.063 22.8332 88.5966 25.2577 88.5966 28.5591C88.5966 31.8471 91.0829 34.2982 94.4388 34.2982C97.1375 34.2982 99.3117 32.7638 100.069 30.3094H96.384C96.0288 30.9403 95.3052 31.319 94.4388 31.319C93.2704 31.319 92.487 30.6814 92.2447 29.4458H100.231C100.278 29.1137 100.308 28.7882 100.308 28.4628ZM94.4388 25.7359C95.5575 25.7359 96.3309 26.3172 96.6562 27.3933H92.3077C92.6098 26.3238 93.36 25.7359 94.4388 25.7359ZM113.793 22.8697C112.449 22.8697 111.254 23.4808 110.48 24.454C109.813 23.4576 108.711 22.8697 107.403 22.8697C106.168 22.8697 105.043 23.4376 104.266 24.3444L103.742 23.1852H101.136V33.9461H104.841V28.0442C104.841 26.7091 105.388 25.9917 106.387 25.9917C107.161 25.9917 107.569 26.5663 107.569 27.6557V33.9461H111.174V28.0475C111.174 26.6924 111.695 25.9917 112.718 25.9917C113.508 25.9917 113.923 26.5331 113.923 27.6557V33.9461H117.627V27.2007C117.627 24.6665 116.097 22.8697 113.793 22.8697Z" fill="white"/>
<path d="M3.17008 12.9755V7.28529H2.21143V12.9755H3.17008ZM12.0236 10.1791V11.7643C11.6174 12.0081 11.1381 12.1545 10.7156 12.1545C9.55377 12.1545 8.63579 11.2684 8.63579 10.1303C8.63579 9.00045 9.54567 8.11447 10.7075 8.11447C11.3006 8.11447 11.9099 8.35827 12.3486 8.76476L12.8929 8.05757C12.3324 7.56979 11.5199 7.26089 10.7075 7.26089C8.9851 7.26089 7.66086 8.50457 7.66086 10.1303C7.66086 11.7561 8.9689 13.0161 10.6506 13.0161C11.4305 13.0161 12.2836 12.7154 12.8604 12.2764V10.1791H12.0236ZM21.2914 12.9755H22.3801L21.1046 11.0733C21.8601 10.7807 22.2826 10.1385 22.2826 9.22805C22.2826 7.99248 21.4458 7.28529 19.9915 7.28529H17.6843V12.9755H18.6429V11.2603H19.9915C20.0809 11.2603 20.1702 11.2603 20.2515 11.2522L21.2914 12.9755ZM18.6429 10.3986V8.14697H19.9915C20.8689 8.14697 21.3726 8.50457 21.3726 9.25245C21.3726 10.0247 20.8689 10.3986 19.9915 10.3986H18.6429ZM31.0874 8.14697V7.28529H27.0252V12.9755H31.1848V12.1138H27.9839V10.5449H30.7624V9.68334H27.9839V8.14697H31.0874ZM38.5028 7.28529H35.57V8.14697H37.5361V11.1871C37.5361 11.7724 37.2354 12.0894 36.7236 12.0894C36.3337 12.0894 35.8868 11.87 35.5131 11.4635L35.0581 12.1951C35.4806 12.7154 36.0493 13.0161 36.7317 13.0161C37.8285 13.0161 38.5028 12.3658 38.5028 11.2196V7.28529ZM46.8527 11.6911L47.397 12.9755H48.4207L45.9346 7.28529H44.9516L42.4411 12.9755H43.4404L43.9847 11.6911H46.8527ZM46.4871 10.8376H44.3422L45.4146 8.30957L46.4871 10.8376Z" fill="white"/>
<path d="M76.8005 39.3038H71.1641V53.2465H76.8005C80.9962 53.2465 83.9837 50.3304 83.9837 46.2652C83.9837 42.1933 81.0095 39.3038 76.8005 39.3038ZM76.6179 49.726H75.0212V42.8243H76.6179C78.6759 42.8243 80.0469 44.1961 80.0469 46.2652C80.0469 48.3178 78.6759 49.726 76.6179 49.726ZM96.0286 47.7664C96.0286 44.6112 93.6286 42.1368 90.1598 42.1368C86.784 42.1368 84.3177 44.5614 84.3177 47.8627C84.3177 51.1508 86.8039 53.6019 90.1598 53.6019C92.8585 53.6019 95.0328 52.0675 95.7896 49.6131H92.105C91.7498 50.244 91.0262 50.6227 90.1598 50.6227C88.9914 50.6227 88.208 49.985 87.9657 48.7495H95.9523C95.9988 48.4174 96.0286 48.0919 96.0286 47.7664ZM90.1598 45.0396C91.2785 45.0396 92.0519 45.6208 92.3772 46.697H88.0288C88.3309 45.6275 89.081 45.0396 90.1598 45.0396ZM102.022 53.5886C105.199 53.5886 107.313 51.629 107.313 48.6233V42.4889H103.609V48.4605C103.609 49.5832 103.011 50.2607 102.022 50.2607C101.033 50.2607 100.422 49.5964 100.422 48.4605V42.4889H96.7177V48.6233C96.7177 51.629 98.8454 53.5886 102.022 53.5886ZM112.779 53.6019C115.637 53.6019 117.532 52.1305 117.532 49.882C117.532 47.152 115.275 46.7999 113.576 46.4977C112.553 46.3151 111.733 46.1722 111.733 45.5611C111.733 45.0596 112.132 44.7673 112.726 44.7673C113.396 44.7673 113.858 45.0861 113.858 45.7737H117.327C117.283 43.5949 115.511 42.1368 112.772 42.1368C110.014 42.1368 108.178 43.5285 108.178 45.684C108.178 48.2945 110.389 48.7994 112.055 49.0717C113.091 49.241 113.904 49.4171 113.904 50.0382C113.904 50.5961 113.39 50.8718 112.849 50.8718C112.145 50.8718 111.597 50.5097 111.597 49.7226H108.032C108.065 52.0542 109.848 53.6019 112.779 53.6019Z" fill="white"/>
<path fill-rule="evenodd" clip-rule="evenodd" d="M155.729 52.9705C155.944 52.9643 156.164 52.9548 156.388 52.9427C157.827 51.8918 158.735 50.6623 159.159 49.2595C159.54 47.9963 159.532 46.5854 159.169 45.0306C159.081 45.2002 158.979 45.3903 158.862 45.6037C157.566 47.9688 155.491 49.3922 153.147 50.186C150.438 51.1038 147.372 51.1774 144.751 50.8947C146.135 51.4879 147.582 51.9646 149.079 52.3117C150.966 52.7494 152.934 52.9811 154.957 52.9811C155.235 52.9811 155.493 52.9775 155.729 52.9705ZM172.73 26.9878C170.866 27.3353 169.253 28.6646 167.683 30.5247C168.983 32.6797 170.185 35.0406 170.644 37.9948C171.076 40.7785 170.846 44.0806 169.41 48.2179L169.516 48.1015C171.916 45.4277 172.626 41.4567 173.268 37.856C174.105 33.1691 174.834 29.0893 178.959 29.0114C176.508 27.2065 174.495 26.659 172.73 26.9878Z" fill="#2C9DB8"/>
</svg>
